<svg xmlns="http://www.w3.org/2000/svg" viewBox="0 0 180 200" width="180" height="200">
  <defs>
    <radialGradient id="leafC" cx="50%" cy="40%" r="60%">
      <stop offset="0%" stop-color="#BFD0A8" stop-opacity="0.92"/>
      <stop offset="100%" stop-color="#7B8E6B" stop-opacity="0.6"/>
    </radialGradient>
  </defs>
  <g>
    <path fill="url(#leafC)" d="
      M90 10
      C 145 18, 172 70, 165 125
      C 158 175, 110 192, 70 186
      C 28 180, 8 130, 14 80
      C 20 36, 50 8, 90 10 Z
      M90 10
      L 86 100
      L 14 80 Z" fill-rule="evenodd"/>
    <g stroke="#5C6E4E" stroke-width="0.7" opacity="0.4" fill="none" stroke-linecap="round">
      <path d="M86 100 L 90 18"/>
      <path d="M86 100 L 40 40"/>
      <path d="M86 100 L 140 40"/>
      <path d="M86 100 L 30 110"/>
      <path d="M86 100 L 150 115"/>
      <path d="M86 100 L 60 170"/>
      <path d="M86 100 L 120 170"/>
    </g>
  </g>
</svg>
