<svg xmlns="http://www.w3.org/2000/svg" viewBox="0 0 220 180" width="220" height="180">
  <defs>
    <radialGradient id="leafB" cx="35%" cy="45%" r="70%">
      <stop offset="0%" stop-color="#D4E0C2" stop-opacity="0.9"/>
      <stop offset="100%" stop-color="#8FA37E" stop-opacity="0.65"/>
    </radialGradient>
  </defs>
  <g>
    <path fill="url(#leafB)" d="
      M110 12
      C 180 20, 215 70, 205 120
      C 195 158, 145 172, 100 168
      C 50 162, 10 130, 14 80
      C 18 38, 60 8, 110 12 Z
      M110 12
      L 102 92
      L 14 80 Z" fill-rule="evenodd"/>
    <g stroke="#6B7E5C" stroke-width="0.7" opacity="0.4" fill="none" stroke-linecap="round">
      <path d="M102 92 L 110 18"/>
      <path d="M102 92 L 50 30"/>
      <path d="M102 92 L 170 30"/>
      <path d="M102 92 L 30 95"/>
      <path d="M102 92 L 180 100"/>
      <path d="M102 92 L 80 160"/>
      <path d="M102 92 L 140 160"/>
    </g>
  </g>
</svg>
